<?xml version="1.0" standalone="no"?>
<!DOCTYPE svg PUBLIC "-//W3C//DTD SVG 20010904//EN"
 "http://www.w3.org/TR/2001/REC-SVG-20010904/DTD/svg10.dtd">
<svg version="1.0" xmlns="http://www.w3.org/2000/svg"
 width="3375.000000pt" height="3375.000000pt" viewBox="0 0 3375.000000 3375.000000"
 preserveAspectRatio="xMidYMid meet">

<g transform="translate(0.000000,3375.000000) scale(0.100000,-0.100000)"
fill="#000000" stroke="none">
<path d="M23459 28442 c-168 -114 -433 -332 -679 -558 -176 -162 -685 -673
-901 -904 -1510 -1623 -3619 -4282 -6258 -7888 -279 -382 -313 -420 -393 -444
-48 -14 -98 -1 -182 51 -34 20 -394 270 -801 556 -2275 1595 -2485 1741 -2559
1777 -47 23 -48 23 -63 3 -9 -13 -13 -32 -9 -54 3 -18 79 -157 169 -310 1189
-1998 2134 -3723 3457 -6306 183 -357 351 -681 373 -719 46 -81 99 -141 140
-163 37 -19 98 -11 139 18 56 40 73 78 273 599 943 2456 2261 5317 3705 8045
1089 2058 2230 3994 3503 5947 114 175 212 328 218 341 14 30 -3 67 -29 67
-10 0 -56 -26 -103 -58z"/>
<path d="M4322 13883 c-4 -10 -7 -1471 -7 -3246 0 -3184 0 -3229 19 -3243 17
-12 110 -14 570 -13 303 1 562 4 576 8 l25 7 6 1704 c3 938 7 2199 8 2803 l1
1097 414 0 c448 0 562 -8 747 -55 495 -124 796 -439 875 -914 13 -81 15 -142
11 -285 -4 -160 -8 -195 -36 -301 -101 -392 -372 -668 -771 -788 -195 -59
-338 -76 -635 -78 -121 -1 -230 -4 -243 -7 -21 -7 40 -111 904 -1562 510 -855
938 -1572 951 -1592 l23 -38 681 0 681 0 -14 23 c-62 97 -1538 2577 -1537
2584 0 4 66 40 147 80 330 162 570 367 753 642 429 646 423 1627 -13 2278
-350 524 -961 831 -1793 902 -73 7 -551 11 -1228 11 -1046 0 -1108 -1 -1115
-17z"/>
<path d="M10800 12439 c-359 -35 -691 -152 -947 -332 -115 -81 -320 -287 -406
-407 -154 -217 -292 -552 -356 -865 -55 -271 -63 -360 -68 -853 -5 -461 2
-638 33 -852 138 -947 679 -1572 1534 -1774 223 -53 310 -61 660 -61 356 1
467 12 740 74 280 65 607 192 788 307 l52 34 0 441 0 441 -27 -17 c-123 -81
-372 -196 -552 -255 -290 -96 -490 -125 -841 -124 -345 0 -494 23 -682 104
-380 163 -588 564 -588 1131 l0 129 1428 0 1429 0 6 325 c9 476 -9 749 -68
1040 -47 234 -111 420 -211 615 -262 510 -705 806 -1329 890 -111 15 -480 21
-595 9z m407 -910 c443 -61 684 -406 706 -1011 l4 -108 -889 0 -888 0 0 69 c0
99 26 280 55 391 32 120 118 296 184 377 185 226 488 329 828 282z"/>
<path d="M18745 12443 c-283 -23 -487 -70 -688 -159 -606 -266 -973 -839
-1082 -1688 -45 -349 -45 -1099 0 -1463 111 -909 537 -1514 1227 -1745 435
-145 993 -139 1418 15 630 228 1040 788 1169 1597 43 265 46 329 46 860 0 518
-5 616 -41 850 -136 870 -577 1445 -1266 1650 -228 68 -552 102 -783 83z m329
-918 c140 -29 241 -81 342 -177 145 -138 235 -331 279 -598 27 -168 38 -516
32 -1055 -7 -622 -17 -727 -93 -954 -50 -151 -104 -240 -204 -342 -73 -73
-101 -94 -180 -132 -118 -57 -214 -77 -365 -77 -147 0 -233 19 -355 77 -217
104 -367 334 -429 657 -36 183 -44 363 -44 946 -1 583 7 745 44 937 77 399
288 649 606 717 91 19 275 20 367 1z"/>
<path d="M23025 12444 c-286 -18 -510 -50 -726 -104 -278 -70 -482 -147 -791
-298 l-218 -105 0 -2272 c0 -1906 2 -2274 14 -2284 9 -8 164 -10 557 -9 l544
3 3 2003 2 2003 74 34 c244 113 713 166 964 109 359 -81 570 -392 612 -899 6
-72 10 -749 10 -1681 0 -1415 1 -1562 16 -1568 20 -8 1068 -8 1088 0 15 6 16
153 16 1573 0 1564 -3 1737 -36 1946 -83 535 -337 959 -729 1221 -251 167
-567 277 -905 313 -107 12 -403 21 -495 15z"/>
<path d="M26871 12430 c-349 -36 -744 -135 -951 -238 l-75 -37 -6 -60 c-4 -33
-7 -230 -8 -438 l-1 -378 23 7 c12 3 40 15 61 26 64 33 255 104 351 131 249
70 454 97 750 97 415 0 672 -56 884 -194 213 -137 348 -354 389 -620 l9 -59
-66 7 c-351 32 -847 33 -1071 1 -785 -110 -1330 -504 -1534 -1110 -57 -167
-77 -294 -83 -512 -4 -129 -1 -238 6 -300 98 -796 659 -1279 1603 -1379 134
-14 284 -15 1183 -12 944 4 1033 6 1062 21 18 10 37 26 43 37 14 25 30 2757
19 2961 -16 265 -75 561 -154 775 -52 138 -163 352 -240 459 -182 255 -401
441 -680 580 -227 113 -442 179 -717 221 -120 18 -662 28 -797 14z m1155
-2631 c60 -6 152 -18 204 -27 l95 -17 3 -781 2 -781 -67 -6 c-112 -11 -796 -8
-900 4 -236 26 -417 114 -541 262 -52 63 -115 189 -137 275 -37 146 -37 359 0
500 82 318 351 526 738 571 107 13 478 13 603 0z"/>
<path d="M13021 12343 c-77 -4 -83 -5 -78 -24 3 -10 323 -559 711 -1219 389
-660 709 -1206 712 -1214 4 -9 -282 -511 -710 -1248 -393 -678 -718 -1241
-722 -1251 -6 -16 26 -17 616 -15 l621 3 411 750 c225 413 413 753 417 758 4
4 194 -334 422 -750 l415 -758 622 -3 c342 -1 622 1 622 4 0 5 -1391 2417
-1433 2485 -8 13 139 270 706 1235 394 671 719 1227 722 1237 7 16 -26 17
-612 17 -578 0 -621 -1 -635 -17 -9 -10 -197 -351 -418 -758 -222 -407 -406
-744 -410 -748 -4 -4 -193 337 -420 758 l-413 765 -531 -2 c-292 -1 -569 -4
-615 -5z"/>
</g>
</svg>
