<svg viewBox="0 0 1080 1080" height="1080" width="1080" xmlns="http://www.w3.org/2000/svg"><g fill-rule="evenodd" fill="none"><rect fill="#FFF" height="1080" width="1080"></rect><path d="M826.649727 690.972431 826.626138 719.253238C840.059789 712.571897 855.238988 709.319604 874.062611 711.04002 891.423746 712.654383 903.583618 721.303596 905.482492 738.660942 905.482492 738.660942 892.001664 736.916958 877.931125 737.623979 844.069834 738.908399 817.08459 757.255572 817.08459 792.253071 817.08459 828.44072 844.069834 844.619699 879.381817 844.619699 908.490025 844.619699 928.327953 844.30154 942.398493 844.30154 942.398493 844.30154 942.846675 800.925852 942.846675 781.035018 942.846675 761.014563 943 755.087377 943 755.087377 943 705.713801 913.561553 683.961147 878.155215 681.969707 875.666629 681.781168 873.248807 681.72225 870.948929 681.72225 851.370474 681.72225 836.3446 686.317881 826.649727 690.972431L826.649727 690.972431ZM880.160238 818.153577C862.810896 818.03574 852.974492 808.903396 852.974492 792.253071 852.974492 776.085876 864.226206 767.601634 878.320335 766.364349 894.195395 764.914957 906.402443 767.919793 906.402443 767.919793L906.402443 818.012173C900.363787 818.118226 895.221495 818.200711 888.593126 818.200711 886.080951 818.200711 883.321097 818.200711 880.160238 818.153577L880.160238 818.153577ZM137.995282 635 137.995282 843.865544 176.515302 843.783058 176.515302 663.893558 197.343947 663.893558C228.645885 663.893558 242.350803 680.543883 242.350803 702.414374 242.350803 724.826913 228.551531 741.559724 197.367535 741.559724L193.404667 741.559724 187.271657 741.559724 248.22434 843.865544 291.922035 843.865544 242.00877 760.260408C244.143529 759.411984 246.985944 758.009727 246.985944 758.009727 271.836428 745.837196 281.283622 723.837085 281.283622 701.589517 281.283622 670.999111 263.792749 635 200.882222 635L137.995282 635ZM542.184219 757.255572C542.184219 757.255572 542.066276 758.893502 542.066276 764.514313 542.066276 770.170474 542.184219 771.384192 542.184219 771.384192 542.184219 819.591184 564.734824 847 604.422474 847 644.027565 847 666.920203 819.732589 666.920203 771.384192 666.920203 771.384192 667.014557 770.135123 667.014557 764.478962 667.014557 758.869935 666.920203 757.255572 666.920203 757.255572 666.920203 709.04858 644.393187 681.639764 604.658359 681.639764 565.053269 681.639764 542.184219 708.907176 542.184219 757.255572L542.184219 757.255572ZM578.074121 783.427102C578.074121 783.427102 577.708499 776.875382 577.708499 763.206325 577.708499 749.525485 578.074121 745.189095 578.074121 745.189095 578.581273 723.837085 587.261841 710.662943 604.658359 710.662943 621.995906 710.662943 630.523149 723.954922 631.030302 745.189095 631.030302 745.189095 631.395923 753.048802 631.395923 763.206325 631.395923 773.293147 631.030302 783.427102 631.030302 783.427102 630.523149 804.767328 621.842581 818.03574 604.422474 818.03574 587.167487 818.03574 578.581273 804.637708 578.074121 783.427102L578.074121 783.427102ZM479.851609 733.841421 453.408902 684.892057 413.414601 684.892057 459.966504 763.96048 413.414601 844.195487 453.408902 844.195487 480.122877 795.411094 506.825058 844.195487 546.831153 844.195487 500.420781 763.889778 546.831153 684.892057 506.541996 684.844922 479.851609 733.841421ZM681.179451 698.054416 681.179451 844.195487 717.11653 844.195487 717.11653 715.812406C720.33636 714.292313 727.247791 710.521539 743.700769 710.521539 760.118364 710.521539 770.119888 722.15202 770.119888 745.483686L770.119888 844.195487 806.104144 844.195487C806.104144 838.539325 806.033378 745.106609 806.033378 745.106609 806.033378 704.464732 781.666459 681.639764 742.368019 681.639764 710.75943 681.639764 692.05375 692.775332 681.179451 698.054416L681.179451 698.054416ZM288.560674 757.173087C288.560674 757.173087 288.46632 758.587127 288.46632 764.101884L288.46632 764.384692C288.46632 769.887666 288.560674 771.066033 288.560674 771.066033 288.560674 820.286421 315.793596 844.07765 351.565556 846.587572 380.933237 848.673281 401.301906 839.305264 410.466038 833.436996L410.513215 805.109055C395.239662 814.512423 378.031852 819.567617 355.634572 817.45834 334.169037 815.419765 325.004905 801.326497 324.450576 778.984659L324.474164 774.094436 415.950365 774.094436 416.221632 757.255572C416.988258 708.235507 395.628872 681.533711 353.676726 681.533711 312.951182 681.533711 288.560674 708.400478 288.560674 757.173087L288.560674 757.173087ZM324.474164 745.236229C325.004905 723.518926 335.254108 710.745428 353.676726 710.745428 372.712645 710.745428 381.251682 724.119893 381.251682 745.754711L381.298859 746.850592 324.474164 746.850592 324.474164 745.236229ZM747.75466 171.841373C737.28231 180.296063 686.372755 213.134741 493.549272 477.639016 492.144301 479.634606 489.62952 483.413239 486.00493 483.413239 484.434667 483.413239 482.474791 482.374115 479.830139 480.614689 476.618776 478.489208 396.027722 421.703447 380.761939 411.312208 374.693407 407.155712 372.438369 405.455327 371.25772 406.411794 370.265976 407.250178 372.249465 410.674563 375.271925 415.598594 378.176319 420.333693 414.965321 482.067101 447.173407 542.737769 474.658899 594.410569 496.241151 637.156349 497.162056 638.915775 500.13729 644.654573 502.474974 649 505.580079 649 510.172801 649 511.117319 644.548299 513.998101 637.486979 516.926109 630.260344 596.974065 410.16681 751.721639 175.360224 754.047516 171.758715 756.798427 167.767535 755.783069 167.059041 755.759456 167.035425 755.641391 167 755.523326 167 754.460743 167 750.954217 169.491536 747.75466 171.841373" fill="#0A2B72"></path></g></svg>